<svg width="88" height="88" viewBox="0 0 88 88" fill="none" xmlns="http://www.w3.org/2000/svg">
<path d="M43.4314 8.79554C45.4448 6.67839 48.9114 7.01149 50.4849 9.47328L54.9929 16.5276C56.0301 18.1501 57.8403 19.1125 59.7654 19.0641L68.1334 18.8537C71.0542 18.7803 73.2693 21.4663 72.6411 24.3197L70.8411 32.4946C70.4271 34.3752 71.0271 36.3356 72.4224 37.6627L78.4893 43.4315C80.6065 45.4449 80.2734 48.9115 77.8116 50.485L70.7572 54.993C69.1348 56.0301 68.1724 57.8404 68.2208 59.7655L68.4311 68.1335C68.5045 71.0543 65.8186 73.2694 62.9652 72.6411L54.7903 70.8412C52.9097 70.4272 50.9493 71.0272 49.6222 72.4225L43.8533 78.4894C41.8399 80.6065 38.3733 80.2735 36.7999 77.8117L32.2918 70.7573C31.2547 69.1349 29.4444 68.1725 27.5194 68.2209L19.1513 68.4312C16.2305 68.5046 14.0155 65.8187 14.6437 62.9653L16.4436 54.7904C16.8577 52.9098 16.2576 50.9493 14.8623 49.6223L8.79545 43.8534C6.6783 41.84 7.0114 38.3734 9.47319 36.8L16.5275 32.2919C18.15 31.2548 19.1124 29.4445 19.064 27.5195L18.8536 19.1514C18.7802 16.2306 21.4662 14.0156 24.3196 14.6438L32.4945 16.4437C34.3751 16.8578 36.3355 16.2577 37.6626 14.8624L43.4314 8.79554Z" fill="url(#paint0_linear_46_2658)" stroke="white"/>
<path d="M38.4486 33.5997L39.0521 27.3186L36.9717 27.1187L37.0377 26.4319L42.0347 26.912L41.9687 27.5989L39.8883 27.399L39.2847 33.68L38.4486 33.5997ZM42.3461 33.9742L43.0347 26.8072L43.8709 26.8875L43.583 29.8837C43.7776 29.601 44.0325 29.3878 44.3477 29.2439C44.6695 29.1007 45.0096 29.0463 45.368 29.0808C45.7529 29.1178 46.0804 29.2296 46.3504 29.4163C46.6211 29.5963 46.8174 29.853 46.9395 30.1862C47.0615 30.5194 47.0992 30.9282 47.0527 31.4126L46.7657 34.3988L45.9395 34.3195L46.2179 31.4228C46.2663 30.9185 46.1965 30.53 46.0084 30.2574C45.8209 29.9782 45.5247 29.8192 45.1199 29.7803C44.8346 29.7528 44.5691 29.7977 44.3234 29.9147C44.0844 30.0324 43.8861 30.2142 43.7285 30.4603C43.5709 30.7063 43.474 31.0185 43.4376 31.3968L43.1822 34.0545L42.3461 33.9742ZM50.2601 34.8552C49.7889 34.8099 49.3814 34.6602 49.0374 34.4062C48.7001 34.1527 48.4474 33.8204 48.2793 33.4091C48.1118 32.9911 48.0533 32.5201 48.1037 31.9958C48.1547 31.4649 48.2985 31.0133 48.5352 30.6409C48.7786 30.2691 49.0933 29.9913 49.4793 29.8073C49.872 29.6241 50.3072 29.5554 50.785 29.6013C51.2761 29.6485 51.6803 29.7978 51.9977 30.0493C52.3217 30.3015 52.5561 30.6153 52.7009 30.9909C52.8529 31.3605 52.9085 31.7576 52.8677 32.1823C52.8613 32.2487 52.8546 32.3184 52.8476 32.3914C52.8406 32.4643 52.8293 32.547 52.8137 32.6392L48.7126 32.2452L48.7748 31.5982L52.0696 31.9148C52.0937 31.455 51.9755 31.0819 51.715 30.7957C51.4612 30.5101 51.1219 30.3469 50.6972 30.3061C50.4118 30.2787 50.14 30.3195 49.8817 30.4287C49.6307 30.5318 49.4201 30.7024 49.2499 30.9406C49.0803 31.1721 48.9776 31.4737 48.9419 31.8453L48.9151 32.124C48.8756 32.5354 48.9154 32.8875 49.0346 33.1803C49.1605 33.4737 49.3362 33.7015 49.5617 33.8638C49.7938 34.0268 50.0493 34.1216 50.328 34.1484C50.6797 34.1822 50.9757 34.1336 51.216 34.0027C51.4636 33.8657 51.6499 33.6693 51.7749 33.4134L52.6011 33.4928C52.4928 33.7838 52.3276 34.0392 52.1056 34.2589C51.8835 34.4787 51.6165 34.6439 51.3045 34.7546C50.9997 34.8593 50.6516 34.8928 50.2601 34.8552ZM30.1877 45.9863C29.9023 45.9589 29.6474 45.8942 29.4227 45.7923C29.2054 45.6843 29.0172 45.5524 28.858 45.3965C28.6989 45.2405 28.5718 45.0642 28.4768 44.8676L28.3278 45.6871L27.5713 45.6144L28.2599 38.4474L29.0961 38.5277L28.8101 41.504C28.9942 41.2605 29.2445 41.0602 29.561 40.9031C29.8775 40.746 30.2547 40.6885 30.6927 40.7306C31.1771 40.7771 31.5907 40.934 31.9334 41.2014C32.2767 41.4621 32.5287 41.8011 32.6895 42.2184C32.8576 42.6297 32.9175 43.0875 32.869 43.5918C32.8205 44.0962 32.6743 44.5375 32.4303 44.9159C32.193 45.295 31.881 45.5798 31.4943 45.7703C31.1077 45.9609 30.6721 46.0329 30.1877 45.9863ZM30.158 45.2501C30.4831 45.2814 30.7795 45.2295 31.0469 45.0944C31.3144 44.9594 31.5312 44.7592 31.6974 44.4939C31.8708 44.2226 31.976 43.8945 32.0129 43.5096C32.0493 43.1313 32.0082 42.7925 31.8896 42.4931C31.7777 42.1944 31.6033 41.9532 31.3664 41.7698C31.1295 41.5863 30.8485 41.4789 30.5233 41.4476C30.1915 41.4158 29.8919 41.4673 29.6244 41.6024C29.3569 41.7374 29.1398 41.9409 28.973 42.2129C28.8063 42.4848 28.7047 42.8099 28.6684 43.1882C28.6314 43.5731 28.6688 43.9149 28.7808 44.2137C28.8934 44.5058 29.0681 44.7436 29.305 44.9271C29.5418 45.1106 29.8262 45.2182 30.158 45.2501ZM35.9907 46.5439C35.5196 46.4987 35.112 46.349 34.7681 46.0949C34.4308 45.8415 34.1781 45.5092 34.01 45.0979C33.8425 44.6799 33.784 44.2088 33.8343 43.6846C33.8853 43.1537 34.0292 42.702 34.2659 42.3296C34.5092 41.9579 34.8239 41.68 35.21 41.4961C35.6026 41.3128 36.0378 41.2441 36.5156 41.2901C37.0067 41.3372 37.411 41.4866 37.7284 41.7381C38.0524 41.9903 38.2868 42.3041 38.4315 42.6797C38.5835 43.0492 38.6391 43.4464 38.5983 43.8711C38.592 43.9375 38.5853 44.0071 38.5782 44.0801C38.5712 44.1531 38.5599 44.2358 38.5444 44.328L34.4433 43.934L34.5054 43.2869L37.8003 43.6035C37.8243 43.1437 37.7062 42.7707 37.4457 42.4845C37.1918 42.1989 36.8525 42.0357 36.4278 41.9949C36.1425 41.9675 35.8707 42.0083 35.6124 42.1175C35.3614 42.2206 35.1507 42.3912 34.9805 42.6294C34.8109 42.8609 34.7083 43.1624 34.6726 43.5341L34.6458 43.8128C34.6063 44.2242 34.6461 44.5763 34.7653 44.8691C34.8912 45.1624 35.0668 45.3903 35.2923 45.5526C35.5245 45.7155 35.7799 45.8104 36.0586 45.8372C36.4103 45.871 36.7064 45.8224 36.9466 45.6915C37.1942 45.5545 37.3805 45.3581 37.5056 45.1022L38.3318 45.1816C38.2234 45.4726 38.0582 45.728 37.8362 45.9477C37.6142 46.1675 37.3471 46.3327 37.0351 46.4434C36.7304 46.548 36.3823 46.5816 35.9907 46.5439ZM41.3397 47.0579C40.9216 47.0177 40.5633 46.913 40.2648 46.7437C39.9729 46.575 39.7459 46.3589 39.5837 46.0955C39.4287 45.8261 39.3476 45.5203 39.3403 45.1781L40.1964 45.2603C40.213 45.436 40.2674 45.602 40.3595 45.7582C40.4517 45.9144 40.5828 46.0476 40.7531 46.1577C40.9306 46.2618 41.1521 46.3266 41.4175 46.3521C41.6498 46.3744 41.8454 46.3597 42.0045 46.308C42.1641 46.2497 42.2862 46.1643 42.3706 46.0519C42.4617 45.9401 42.514 45.8145 42.5274 45.6752C42.5471 45.4694 42.5124 45.3087 42.423 45.193C42.3403 45.0779 42.2089 44.9815 42.0289 44.9039C41.8494 44.8197 41.6292 44.7416 41.3682 44.6697C41.1531 44.6088 40.9425 44.535 40.7365 44.4482C40.5305 44.3615 40.3497 44.257 40.194 44.1349C40.0389 44.0062 39.9193 43.8574 39.8351 43.6885C39.7574 43.5204 39.7298 43.3201 39.7521 43.0879C39.7795 42.8025 39.8768 42.5573 40.0438 42.3524C40.2115 42.1408 40.4374 41.985 40.7216 41.8851C41.0124 41.7858 41.3404 41.7536 41.7053 41.7887C42.2429 41.8404 42.6651 42.0115 42.972 42.3022C43.279 42.5929 43.4387 42.9867 43.4512 43.4835L42.625 43.4041C42.6161 43.1487 42.5254 42.9424 42.353 42.7852C42.1878 42.622 41.946 42.5251 41.6275 42.4945C41.3156 42.4645 41.0706 42.5046 40.8926 42.6148C40.7212 42.7256 40.6256 42.8838 40.6059 43.0895C40.5931 43.2222 40.6248 43.3458 40.7009 43.4603C40.7842 43.5688 40.9086 43.6678 41.0741 43.7574C41.2463 43.8476 41.4596 43.9284 41.7139 43.9997C42.04 44.0913 42.3343 44.1999 42.5968 44.3256C42.8593 44.4513 43.0639 44.6217 43.2107 44.8367C43.3648 45.0457 43.4246 45.3294 43.3901 45.6877C43.3602 45.9996 43.2544 46.2641 43.0728 46.481C42.8979 46.6986 42.6613 46.8601 42.3632 46.9654C42.0658 47.064 41.7246 47.0949 41.3397 47.0579ZM46.2037 47.4047C45.9051 47.376 45.6508 47.3047 45.4407 47.1908C45.2306 47.0768 45.0764 46.9046 44.978 46.6741C44.8869 46.4377 44.8595 46.1303 44.8958 45.752L45.1646 42.9549L44.2886 42.8708L44.3565 42.164L45.2325 42.2482L45.4587 41.0443L46.1853 41.1141L46.0686 42.3285L47.5219 42.4682L47.454 43.1749L46.0007 43.0353L45.732 45.8324C45.702 46.1443 45.7446 46.3627 45.8599 46.4876C45.9758 46.6059 46.193 46.6804 46.5115 46.711L47.049 46.7626L46.9802 47.4793L46.2037 47.4047ZM52.7459 48.0333C52.4472 48.0046 52.1929 47.9333 51.9828 47.8194C51.7728 47.7054 51.6185 47.5332 51.5201 47.3027C51.429 47.0663 51.4016 46.7589 51.4379 46.3807L51.7067 43.5835L50.8307 43.4994L50.8987 42.7926L51.7746 42.8768L52.0008 41.6729L52.7275 41.7427L52.6108 42.9571L54.0641 43.0968L53.9962 43.8035L52.5429 43.6639L52.2741 46.461C52.2441 46.7729 52.2868 46.9913 52.402 47.1162C52.5179 47.2345 52.7351 47.309 53.0536 47.3396L53.5912 47.3912L53.5223 48.1079L52.7459 48.0333ZM56.7651 48.5401C56.3006 48.4955 55.8927 48.3491 55.5415 48.101C55.1909 47.8463 54.9283 47.513 54.7535 47.1011C54.5794 46.6825 54.5176 46.2111 54.5679 45.6869C54.6196 45.1493 54.7704 44.695 55.0204 44.3239C55.2776 43.9468 55.6023 43.6699 55.9943 43.4932C56.3936 43.3106 56.8255 43.2416 57.29 43.2862C57.7678 43.3321 58.1787 43.4821 58.5227 43.7362C58.8739 43.9842 59.1365 44.3175 59.3106 44.7361C59.492 45.1487 59.5572 45.6204 59.5062 46.1513C59.4552 46.6822 59.301 47.1362 59.0438 47.5133C58.7872 47.8838 58.4625 48.1607 58.0699 48.344C57.6778 48.5206 57.2429 48.586 56.7651 48.5401ZM56.8439 47.8243C57.1293 47.8518 57.4014 47.8076 57.6604 47.6918C57.9199 47.5694 58.1397 47.3729 58.3198 47.1022C58.4998 46.8315 58.6099 46.4871 58.6501 46.069C58.6909 45.6443 58.6484 45.2853 58.5225 44.9919C58.404 44.6925 58.2286 44.4614 57.9965 44.2984C57.7716 44.1295 57.5132 44.031 57.2212 44.0029C56.9425 43.9761 56.67 44.0236 56.4038 44.1454C56.1449 44.2611 55.9254 44.4544 55.7453 44.7251C55.5726 44.9897 55.4658 45.3344 55.425 45.7592C55.3848 46.1772 55.424 46.536 55.5426 46.8353C55.6678 47.1354 55.8428 47.3698 56.0677 47.5388C56.2998 47.7017 56.5586 47.7969 56.8439 47.8243ZM34.4219 59.4531C33.9375 59.4065 33.5236 59.2529 33.1803 58.9922C32.8376 58.7249 32.5859 58.3826 32.4251 57.9653C32.2642 57.548 32.2081 57.0871 32.2565 56.5828C32.305 56.0785 32.4476 55.6401 32.6843 55.2677C32.9216 54.8886 33.2336 54.6038 33.6203 54.4133C34.0136 54.2234 34.4524 54.1517 34.9369 54.1982C35.3483 54.2378 35.6987 54.3552 35.988 54.5504C36.284 54.7463 36.5005 55.0015 36.6378 55.316L36.9237 52.3398L37.7599 52.4201L37.0712 59.5871L36.3147 59.5144L36.3244 58.6815C36.2023 58.8372 36.0513 58.9801 35.8714 59.1101C35.6921 59.2336 35.4818 59.3306 35.2406 59.4011C35.0001 59.4651 34.7272 59.4824 34.4219 59.4531ZM34.5913 58.736C34.9231 58.7679 35.2227 58.7163 35.4902 58.5813C35.7577 58.4462 35.9745 58.246 36.1406 57.9807C36.3074 57.7087 36.4093 57.3803 36.4463 56.9954C36.4826 56.6172 36.4448 56.2787 36.3329 55.9799C36.2209 55.6812 36.0465 55.4401 35.8097 55.2566C35.5728 55.0731 35.2884 54.9654 34.9566 54.9335C34.6315 54.9023 34.3351 54.9541 34.0677 55.0892C33.8002 55.2242 33.5831 55.4277 33.4163 55.6997C33.2495 55.9716 33.148 56.2968 33.1116 56.675C33.0746 57.0599 33.1121 57.4017 33.224 57.7005C33.3366 57.9926 33.5113 58.2304 33.7482 58.4139C33.9851 58.5974 34.2661 58.7047 34.5913 58.736ZM40.6926 60.0556C40.228 60.011 39.8202 59.8646 39.4689 59.6166C39.1184 59.3619 38.8557 59.0285 38.681 58.6166C38.5069 58.198 38.445 57.7266 38.4954 57.2024C38.547 56.6648 38.6978 56.2105 38.9478 55.8394C39.2051 55.4623 39.5297 55.1854 39.9217 55.0087C40.321 54.8261 40.753 54.7571 41.2175 54.8017C41.6953 54.8476 42.1061 54.9976 42.4501 55.2517C42.8013 55.4997 43.064 55.8331 43.2381 56.2516C43.4194 56.6642 43.4846 57.1359 43.4336 57.6668C43.3826 58.1977 43.2285 58.6517 42.9712 59.0288C42.7146 59.3993 42.39 59.6762 41.9973 59.8595C41.6053 60.0361 41.1704 60.1015 40.6926 60.0556ZM40.7714 59.3399C41.0567 59.3673 41.3289 59.3231 41.5878 59.2073C41.8474 59.0849 42.0672 58.8884 42.2472 58.6177C42.4273 58.347 42.5374 58.0026 42.5775 57.5846C42.6184 57.1599 42.5758 56.8008 42.45 56.5074C42.3314 56.208 42.156 55.9769 41.9239 55.8139C41.699 55.645 41.4406 55.5465 41.1486 55.5184C40.8699 55.4916 40.5974 55.5391 40.3312 55.6609C40.0723 55.7767 39.8528 55.9699 39.6728 56.2406C39.5 56.5053 39.3932 56.85 39.3524 57.2747C39.3122 57.6927 39.3514 58.0515 39.47 58.3509C39.5952 58.6509 39.7703 58.8854 39.9951 59.0543C40.2273 59.2173 40.486 59.3124 40.7714 59.3399ZM47.0886 60.5496L47.5707 55.5327L48.4068 55.6131L47.9248 60.63L47.0886 60.5496ZM48.0911 54.5078C47.9252 54.4919 47.7909 54.4254 47.6883 54.3084C47.593 54.1854 47.5533 54.0409 47.5692 53.875C47.5852 53.7091 47.651 53.5815 47.7667 53.4921C47.8898 53.3968 48.0342 53.3571 48.2001 53.373C48.3594 53.3883 48.4903 53.4545 48.5929 53.5715C48.6962 53.6819 48.7398 53.82 48.7239 53.9859C48.708 54.1518 48.6382 54.2858 48.5145 54.3878C48.3915 54.4831 48.2504 54.5231 48.0911 54.5078ZM51.3712 60.9611C51.0726 60.9324 50.8183 60.8611 50.6082 60.7472C50.3981 60.6332 50.2439 60.461 50.1455 60.2305C50.0544 59.9941 50.027 59.6867 50.0633 59.3085L50.3321 56.5113L49.4561 56.4272L49.524 55.7204L50.4 55.8046L50.6262 54.6007L51.3528 54.6705L51.2361 55.8849L52.6894 56.0246L52.6215 56.7313L51.1682 56.5917L50.8995 59.3888C50.8695 59.7007 50.9121 59.9191 51.0274 60.044C51.1433 60.1623 51.3605 60.2368 51.679 60.2674L52.2165 60.319L52.1477 61.0357L51.3712 60.9611Z" fill="white"/>
<defs>
<linearGradient id="paint0_linear_46_2658" x1="47.4682" y1="3.82585" x2="39.8165" y2="83.4591" gradientUnits="userSpaceOnUse">
<stop stop-color="#BF00FF"/>
<stop offset="1" stop-color="#005CD6"/>
</linearGradient>
</defs>
</svg>
