<svg width="87" height="88" viewBox="0 0 87 88" fill="none" xmlns="http://www.w3.org/2000/svg">
<path d="M36.7783 9.72271C38.3781 7.27795 41.848 6.9821 43.8386 9.12073L49.542 15.2492C50.854 16.6586 52.8079 17.2797 54.6928 16.8859L62.8866 15.1738C65.7465 14.5763 68.4086 16.82 68.3038 19.7399L68.0036 28.1052C67.9346 30.0296 68.8775 31.8501 70.4887 32.9046L77.4942 37.4881C79.939 39.0879 80.2348 42.5579 78.0962 44.5485L71.9677 50.2518C70.5583 51.5639 69.9372 53.5177 70.331 55.4027L72.0431 63.5964C72.6407 66.4564 70.3969 69.1184 67.477 69.0137L59.1117 68.7135C57.1873 68.6444 55.3668 69.5873 54.3123 71.1985L49.7288 78.2041C48.129 80.6488 44.659 80.9447 42.6685 78.806L36.9651 72.6776C35.6531 71.2681 33.6992 70.6471 31.8143 71.0409L23.6205 72.7529C20.7605 73.3505 18.0985 71.1067 18.2033 68.1869L18.5035 59.8216C18.5725 57.8972 17.6296 56.0767 16.0184 55.0222L9.01286 50.4386C6.5681 48.8389 6.27224 45.3689 8.41088 43.3783L14.5393 37.675C15.9488 36.3629 16.5699 34.4091 16.176 32.5241L14.464 24.3304C13.8664 21.4704 16.1102 18.8084 19.03 18.9131L27.3954 19.2133C29.3198 19.2824 31.1403 18.3395 32.1948 16.7282L36.7783 9.72271Z" fill="url(#paint0_linear_48_3164)" stroke="white"/>
<path d="M36.9632 41.4888L36.4272 35.2016L34.3447 35.3792L34.2861 34.6917L39.2879 34.2652L39.3466 34.9527L37.2641 35.1303L37.8002 41.4175L36.9632 41.4888ZM42.2214 41.1609C41.7564 41.2006 41.3289 41.13 40.9388 40.9491C40.5481 40.7616 40.2298 40.481 39.9838 40.1072C39.7372 39.7268 39.5916 39.2742 39.5469 38.7494C39.501 38.2114 39.5676 37.7373 39.7468 37.3273C39.932 36.9101 40.2015 36.5793 40.5554 36.335C40.9153 36.0835 41.3278 35.938 41.7928 35.8983C42.271 35.8575 42.7022 35.9312 43.0862 36.1192C43.4763 36.3001 43.7946 36.5807 44.0412 36.9612C44.2938 37.3344 44.4428 37.7867 44.4881 38.3181C44.5334 38.8495 44.4634 39.3238 44.2782 39.7411C44.0924 40.1517 43.8229 40.4824 43.4696 40.7334C43.1157 40.9776 42.6997 41.1202 42.2214 41.1609ZM42.1702 40.4427C42.4558 40.4183 42.7156 40.3259 42.9495 40.1655C43.1828 39.9984 43.3636 39.7655 43.4921 39.4669C43.6205 39.1682 43.6669 38.8096 43.6312 38.3912C43.5949 37.966 43.4885 37.6205 43.312 37.3545C43.1415 37.0814 42.9274 36.8855 42.6697 36.767C42.4181 36.6412 42.1462 36.5908 41.8539 36.6157C41.5749 36.6395 41.3155 36.7352 41.0755 36.9029C40.8416 37.0633 40.6605 37.2929 40.5321 37.5915C40.4097 37.883 40.3667 38.2413 40.4029 38.6664C40.4386 39.0849 40.5417 39.4307 40.7122 39.7039C40.8893 39.9765 41.1036 40.1757 41.3552 40.3014C41.6129 40.4199 41.8846 40.467 42.1702 40.4427ZM46.0625 42.921L45.4475 35.7072L46.2047 35.6426L46.3441 36.4537C46.4368 36.2852 46.5603 36.1241 46.7144 35.9705C46.868 35.8102 47.0574 35.6769 47.2825 35.5708C47.5071 35.4579 47.7688 35.3888 48.0677 35.3633C48.5593 35.3214 48.9943 35.4014 49.3728 35.6033C49.758 35.8046 50.0672 36.0961 50.3005 36.4777C50.5398 36.852 50.681 37.2916 50.724 37.7964C50.7671 38.3013 50.7026 38.7618 50.5307 39.1779C50.3648 39.5868 50.1089 39.9197 49.7628 40.1767C49.4167 40.4337 48.9979 40.5832 48.5063 40.6251C48.1011 40.6596 47.7353 40.6072 47.409 40.4677C47.0893 40.3277 46.8336 40.1153 46.6421 39.8306L46.8995 42.8496L46.0625 42.921ZM48.3546 39.9054C48.6801 39.8776 48.9623 39.7733 49.2011 39.5923C49.4399 39.4114 49.6172 39.1755 49.7329 38.8846C49.8547 38.5865 49.8991 38.2448 49.8663 37.8595C49.834 37.4809 49.7326 37.155 49.5621 36.8818C49.3983 36.6081 49.1834 36.4023 48.9174 36.2644C48.6513 36.1265 48.3556 36.0714 48.0301 36.0992C47.698 36.1275 47.4125 36.2321 47.1737 36.4131C46.9349 36.594 46.7579 36.8332 46.6427 37.1308C46.5276 37.4283 46.4862 37.7664 46.5184 38.145C46.5513 38.5303 46.6496 38.8598 46.8135 39.1335C46.9768 39.4006 47.1914 39.6031 47.4574 39.741C47.7234 39.8789 48.0225 39.9337 48.3546 39.9054ZM34.4034 54.8747C33.9982 54.9092 33.6535 54.8684 33.3693 54.7521C33.0845 54.6292 32.8657 54.4571 32.7131 54.236C32.5598 54.0082 32.4713 53.7548 32.4475 53.4758C32.4186 53.137 32.4806 52.844 32.6335 52.5968C32.7925 52.3424 33.0263 52.1418 33.3349 51.995C33.6497 51.8411 34.0262 51.7454 34.4646 51.708L35.7898 51.595C35.7632 51.2828 35.6913 51.028 35.5741 50.8306C35.463 50.626 35.3099 50.4784 35.1148 50.388C34.9264 50.297 34.6961 50.2631 34.4237 50.2864C34.1049 50.3136 33.836 50.4168 33.6171 50.596C33.3982 50.7753 33.2755 51.0232 33.249 51.34L32.3921 51.413C32.4014 51.0509 32.4954 50.7418 32.6743 50.4857C32.8593 50.2224 33.1025 50.0143 33.4039 49.8615C33.7048 49.702 34.0246 49.6078 34.3634 49.5789C34.8284 49.5393 35.221 49.5928 35.5413 49.7394C35.8677 49.8789 36.1202 50.0949 36.2991 50.3874C36.4773 50.6733 36.584 51.0222 36.6191 51.434L36.8842 54.5427L36.1369 54.6064L36.0115 53.7239C35.957 53.8691 35.8819 54.0093 35.7864 54.1445C35.697 54.2726 35.5865 54.3891 35.4549 54.494C35.3228 54.5922 35.1693 54.6756 34.9945 54.744C34.8263 54.8119 34.6293 54.8554 34.4034 54.8747ZM34.4726 54.1562C34.7051 54.1364 34.9104 54.072 35.0885 53.9632C35.2726 53.8471 35.424 53.7004 35.5427 53.523C35.6608 53.339 35.7443 53.1412 35.7932 52.9296C35.8487 52.7174 35.8669 52.4984 35.8476 52.2726L35.845 52.2427L34.5896 52.3497C34.2641 52.3775 34.0051 52.4397 33.8127 52.5364C33.6196 52.6265 33.4859 52.7449 33.4114 52.8918C33.3364 53.032 33.3062 53.1885 33.3209 53.3612C33.3362 53.5405 33.3894 53.6932 33.4804 53.8193C33.5781 53.9448 33.7098 54.0372 33.8754 54.0967C34.0477 54.1556 34.2468 54.1755 34.4726 54.1562ZM38.179 54.4323L37.7508 49.4106L38.508 49.346L38.6494 50.2974C38.743 50.0619 38.8694 49.8571 39.0286 49.683C39.1943 49.5083 39.3964 49.3673 39.6348 49.26C39.8799 49.1521 40.1618 49.0845 40.4807 49.0574L40.5554 49.9342L40.2465 49.9605C40.034 49.9786 39.8339 50.0258 39.6464 50.102C39.4583 50.1716 39.2932 50.276 39.1512 50.4152C39.0158 50.5539 38.9143 50.7365 38.8466 50.9631C38.7851 51.1824 38.7679 51.4515 38.795 51.7704L39.0159 54.361L38.179 54.4323ZM43.8396 53.9497C43.5407 53.9752 43.2777 53.9508 43.0505 53.8765C42.8234 53.8022 42.6407 53.6605 42.5024 53.4515C42.3703 53.2353 42.288 52.9378 42.2557 52.5592L42.017 49.7594L41.1402 49.8341L41.0799 49.1267L41.9567 49.0519L41.9627 47.827L42.69 47.765L42.7937 48.9806L44.2484 48.8566L44.3087 49.564L42.854 49.688L43.0927 52.4879C43.1193 52.8001 43.2005 53.0072 43.3364 53.1094C43.4717 53.2049 43.6987 53.2391 44.0176 53.2119L44.5556 53.166L44.6168 53.8834L43.8396 53.9497ZM45.8483 53.7784L45.4202 48.7566L46.2571 48.6853L46.6853 53.7071L45.8483 53.7784ZM45.7477 47.6548C45.5817 47.669 45.4376 47.6277 45.3157 47.5311C45.1998 47.4272 45.1347 47.2923 45.1206 47.1262C45.1064 46.9601 45.1482 46.8228 45.246 46.7141C45.3499 46.5982 45.4848 46.5331 45.6509 46.519C45.8103 46.5054 45.951 46.5469 46.073 46.6435C46.1944 46.7336 46.2622 46.8616 46.2764 47.0277C46.2905 47.1937 46.246 47.338 46.1427 47.4606C46.0388 47.5765 45.9072 47.6412 45.7477 47.6548ZM50.0656 53.5393C49.6471 53.575 49.2758 53.5364 48.9517 53.4235C48.6343 53.3101 48.3721 53.1384 48.1651 52.9085C47.9643 52.6713 47.8295 52.3851 47.7607 52.0497L48.6176 51.9767C48.6655 52.1465 48.7489 52.3 48.8676 52.4371C48.9864 52.5742 49.1394 52.6815 49.3267 52.7592C49.52 52.8297 49.7495 52.8537 50.0152 52.831C50.2477 52.8112 50.4375 52.7615 50.5846 52.6821C50.7312 52.596 50.8359 52.4901 50.8988 52.3643C50.9683 52.2379 50.9971 52.105 50.9852 51.9655C50.9677 51.7596 50.9045 51.6077 50.7958 51.5099C50.6938 51.4116 50.5472 51.3404 50.3561 51.2965C50.1645 51.2459 49.9338 51.2087 49.6641 51.1849C49.4415 51.1637 49.2211 51.129 49.0029 51.0807C48.7847 51.0324 48.588 50.9622 48.4129 50.87C48.2372 50.7713 48.0927 50.6464 47.9795 50.4955C47.8729 50.344 47.8097 50.152 47.7899 49.9195C47.7655 49.6339 47.817 49.3753 47.9445 49.1436C48.0714 48.9053 48.2656 48.7114 48.5272 48.562C48.7954 48.412 49.1122 48.3214 49.4775 48.2903C50.0156 48.2444 50.4617 48.3368 50.8159 48.5676C51.1702 48.7983 51.3981 49.1569 51.4998 49.6434L50.6728 49.7139C50.6181 49.4643 50.4918 49.2777 50.2939 49.154C50.1021 49.0232 49.8467 48.9714 49.5279 48.9986C49.2157 49.0252 48.9819 49.1087 48.8266 49.249C48.678 49.3888 48.6124 49.5617 48.63 49.7676C48.6413 49.9005 48.6947 50.0164 48.7901 50.1153C48.8916 50.207 49.0318 50.282 49.2107 50.3404C49.3963 50.3981 49.6206 50.4392 49.8836 50.4636C50.2209 50.4951 50.5299 50.549 50.8107 50.6255C51.0916 50.7019 51.3235 50.8326 51.5066 51.0178C51.6957 51.1957 51.8056 51.464 51.8362 51.8227C51.8628 52.1349 51.8063 52.414 51.6667 52.6601C51.5337 52.9056 51.3301 53.107 51.0558 53.2642C50.7809 53.4147 50.4509 53.5064 50.0656 53.5393ZM54.9127 53.0056C54.6138 53.0311 54.3508 53.0067 54.1236 52.9324C53.8965 52.858 53.7138 52.7164 53.5755 52.5074C53.4434 52.2912 53.3611 51.9937 53.3288 51.6151L53.0901 48.8153L52.2133 48.89L52.153 48.1826L53.0298 48.1078L53.0358 46.8829L53.7631 46.8209L53.8668 48.0365L55.3215 47.9124L55.3818 48.6199L53.9271 48.7439L54.1658 51.5437C54.1924 51.856 54.2737 52.0631 54.4095 52.1653C54.5448 52.2608 54.7718 52.295 55.0907 52.2678L55.6287 52.2219L55.6899 52.9393L54.9127 53.0056Z" fill="white"/>
<defs>
<linearGradient id="paint0_linear_48_3164" x1="39.8554" y1="4.10799" x2="46.6517" y2="83.8188" gradientUnits="userSpaceOnUse">
<stop stop-color="#BF00FF"/>
<stop offset="1" stop-color="#005CD6"/>
</linearGradient>
</defs>
</svg>
